<?xml version="1.0" encoding="utf-8"?>
<!-- Generator: Adobe Illustrator 21.1.0, SVG Export Plug-In . SVG Version: 6.00 Build 0)  -->
<svg version="1.1" id="Layer_1" xmlns="http://www.w3.org/2000/svg" xmlns:xlink="http://www.w3.org/1999/xlink" x="0px" y="0px"
	 viewBox="0 0 70.9 70.9" style="enable-background:new 0 0 70.9 70.9;" xml:space="preserve">
<style type="text/css">
	.st0{fill:none;stroke:#FFFFFF;stroke-width:3;stroke-miterlimit:10;}
	.st1{fill:#FFFFFF;stroke:#FFFFFF;stroke-width:0.75;stroke-miterlimit:10;}
	.st2{fill:#FFFFFF;}
</style>
<path class="st2" d="M49.8,28.3c0,0.3,0,0.6,0,0.9c0,10.3-7.8,21-21,21c-4,0-7.9-1.1-11.3-3.3c-0.1,0-0.1-0.1-0.1-0.2
	c0-0.1,0.1-0.1,0.2-0.1c0.6,0.1,1.1,0.1,1.7,0.1c3.1,0,6.1-1,8.6-2.8c-3-0.3-5.6-2.3-6.5-5.2c0-0.1,0-0.1,0-0.2c0,0,0.1-0.1,0.2-0.1
	c0.8,0.2,1.7,0.2,2.5,0c-3.1-1-5.3-3.9-5.3-7.2v-0.1c0-0.1,0-0.1,0.1-0.2c0.1,0,0.1,0,0.2,0c0.8,0.4,1.7,0.7,2.6,0.8
	c-1.8-1.4-2.8-3.6-2.8-5.9c0-1.3,0.4-2.6,1-3.8c0-0.1,0.1-0.1,0.1-0.1c0.1,0,0.1,0,0.2,0.1c3.6,4.5,9,7.2,14.7,7.6
	c-0.1-0.5-0.1-1-0.1-1.5c0-4.1,3.4-7.5,7.5-7.5c2,0,4,0.8,5.4,2.3c1.6-0.3,3.1-0.9,4.5-1.7c0.1,0,0.1,0,0.2,0c0.1,0,0.1,0.1,0.1,0.2
	C52,23,51,24.3,49.8,25.2c1.2-0.2,2.3-0.5,3.4-1c0.1,0,0.2,0,0.2,0c0.1,0.1,0.1,0.1,0,0.2C52.4,25.9,51.2,27.2,49.8,28.3L49.8,28.3z
	"/>
<circle class="st0" cx="35.4" cy="35.4" r="33.4"/>
</svg>
