<?xml version="1.0" encoding="utf-8"?>
<!-- Generator: Adobe Illustrator 21.1.0, SVG Export Plug-In . SVG Version: 6.00 Build 0)  -->
<svg version="1.1" id="Layer_1" xmlns="http://www.w3.org/2000/svg" xmlns:xlink="http://www.w3.org/1999/xlink" x="0px" y="0px"
	 viewBox="0 0 70.9 70.9" style="enable-background:new 0 0 70.9 70.9;" xml:space="preserve">
<style type="text/css">
	.st0{fill:none;stroke:#FFFFFF;stroke-width:3;stroke-miterlimit:10;}
	.st1{fill:#FFFFFF;stroke:#FFFFFF;stroke-width:0.75;stroke-miterlimit:10;}
	.st2{fill:#FFFFFF;}
</style>
<circle class="st0" cx="35.4" cy="35.4" r="33.4"/>
<path class="st1" d="M23.1,52.9h24.7c2.8,0,5.1-2.3,5.1-5.1V23.1c0-2.8-2.3-5.1-5.1-5.1H23.1c-2.8,0-5.1,2.3-5.1,5.1v24.7
	C17.9,50.6,20.2,52.9,23.1,52.9L23.1,52.9z M20,23.1c0-1.7,1.4-3.1,3.1-3.1h24.7c1.7,0,3.1,1.4,3.1,3.1v24.7c0,1.7-1.4,3.1-3.1,3.1
	H23.1c-1.7,0-3.1-1.4-3.1-3.1V23.1z M20,23.1"/>
<path class="st1" d="M35.4,44.7c5.1,0,9.2-4.1,9.2-9.2s-4.1-9.2-9.2-9.2s-9.2,4.1-9.2,9.2S30.3,44.7,35.4,44.7L35.4,44.7z
	 M35.4,28.3c4,0,7.2,3.2,7.2,7.2c0,4-3.2,7.2-7.2,7.2c-4,0-7.2-3.2-7.2-7.2C28.3,31.5,31.5,28.3,35.4,28.3L35.4,28.3z M35.4,28.3"/>
<path class="st2" d="M45.9,27.7c1.5,0,2.7-1.2,2.7-2.7c0-1.5-1.2-2.7-2.7-2.7c-1.5,0-2.7,1.2-2.7,2.7C43.2,26.5,44.4,27.7,45.9,27.7
	L45.9,27.7z M45.9,24.1c0.5,0,0.9,0.4,0.9,0.9c0,0.5-0.4,0.9-0.9,0.9c-0.5,0-0.9-0.4-0.9-0.9C45,24.5,45.4,24.1,45.9,24.1L45.9,24.1
	z M45.9,24.1"/>
</svg>
