<?xml version="1.0" encoding="utf-8"?>
<!-- Generator: Adobe Illustrator 21.1.0, SVG Export Plug-In . SVG Version: 6.00 Build 0)  -->
<svg version="1.1" id="Layer_1" xmlns="http://www.w3.org/2000/svg" xmlns:xlink="http://www.w3.org/1999/xlink" x="0px" y="0px"
	 viewBox="0 0 70.9 70.9" style="enable-background:new 0 0 70.9 70.9;" xml:space="preserve">
<style type="text/css">
	.st0{fill:none;stroke:#FFFFFF;stroke-width:3;stroke-miterlimit:10;}
	.st1{fill:#FFFFFF;stroke:#FFFFFF;stroke-width:0.75;stroke-miterlimit:10;}
	.st2{fill:#FFFFFF;}
</style>
<rect x="22.1" y="30.8" class="st2" width="5.7" height="18.4"/>
<path class="st2" d="M24.9,28.3c-1.8,0-3.3-1.5-3.3-3.3c0-1.8,1.5-3.3,3.3-3.3c1.8,0,3.3,1.5,3.3,3.3C28.3,26.8,26.8,28.3,24.9,28.3
	L24.9,28.3z"/>
<path class="st2" d="M49.2,49.2h-5.7v-9c0-2.1,0-4.9-3-4.9c-3,0-3.4,2.3-3.4,4.7v9.1h-5.7V30.8h5.5v2.5H37c0.8-1.4,2.6-3,5.4-3
	c5.8,0,6.9,3.8,6.9,8.8V49.2z"/>
<circle class="st0" cx="35.4" cy="35.4" r="33.4"/>
</svg>
