<?xml version="1.0" encoding="utf-8"?>
<!-- Generator: Adobe Illustrator 21.1.0, SVG Export Plug-In . SVG Version: 6.00 Build 0)  -->
<svg version="1.1" xmlns="http://www.w3.org/2000/svg" xmlns:xlink="http://www.w3.org/1999/xlink" x="0px" y="0px"
	 viewBox="0 0 750 500" style="enable-background:new 0 0 750 500;" xml:space="preserve">
<style type="text/css">
	.st0{fill:#FFFFFF;}
	.st1{fill:#FFC648;}
	.st2{fill:#D4F8FC;}
	.st3{fill:#9ACCD8;}
	.st4{fill:#E2F5F7;}
	.st5{fill:#D6F9C5;}
	.st6{fill:#FFDD99;}
	.st7{fill:#E5A82E;}
	.st8{fill:#B5EDF7;}
	.st9{fill:#65B7CE;}
	.st10{fill:#AA96F8;}
	.st11{fill:#D6D4F4;}
	.st12{fill:#FF8FA5;}
	.st13{fill:#ECE9FF;}
	.st14{fill:#DDD6FE;}
	.st15{fill:#FCF1D6;}
	.st16{fill:#EA719D;}
	.st17{fill:#D7FBFF;}
	.st18{fill:#DCE2E2;}
	.st19{fill:#FFE6ED;}
	.st20{fill:#D2F5F9;}
	.st21{fill:#FFC2D1;}
	.st22{fill:none;stroke:#FFC648;stroke-miterlimit:10;}
	.st23{font-family:'Bebas';}
	.st24{font-size:7.5412px;}
	.st25{letter-spacing:1;}
	.st26{font-size:5.1768px;}
	.st27{fill:#91A3AF;}
</style>
<g id="ARTBOARD_1">
</g>
<g id="ARTBOARD_2">
	<g>
		<g>
			<g>
				<rect x="329.9" y="209.4" class="st1" width="1.1" height="7.8"/>
			</g>
			<g>
				<rect x="323.7" y="211.2" transform="matrix(0.866 -0.5 0.5 0.866 -64.1259 190.9732)" class="st1" width="1.1" height="7.8"/>
			</g>
			<g>
				
					<rect x="319.3" y="215.9" transform="matrix(0.4999 -0.8661 0.8661 0.4999 -30.4627 386.9663)" class="st1" width="1.1" height="7.8"/>
			</g>
			<g>
				<rect x="314.5" y="225.6" class="st1" width="7.8" height="1.1"/>
			</g>
			<g>
				<rect x="316.3" y="231.8" transform="matrix(0.866 -0.5 0.5 0.866 -73.2715 191.2396)" class="st1" width="7.8" height="1.1"/>
			</g>
			<g>
				
					<rect x="321.1" y="236.2" transform="matrix(0.4999 -0.8661 0.8661 0.4999 -42.563 399.8695)" class="st1" width="7.8" height="1.1"/>
			</g>
			<g>
				<rect x="330.7" y="234.4" class="st1" width="1.1" height="7.8"/>
			</g>
			<g>
				<rect x="336.9" y="232.5" transform="matrix(0.866 -0.5 0.5 0.866 -72.9894 200.3936)" class="st1" width="1.1" height="7.8"/>
			</g>
			<g>
				<rect x="341.3" y="227.8" transform="matrix(0.5 -0.866 0.866 0.5 -29.7089 411.9168)" class="st1" width="1.1" height="7.8"/>
			</g>
			<g>
				<rect x="339.5" y="224.8" class="st1" width="7.8" height="1.1"/>
			</g>
			<g>
				
					<rect x="337.6" y="218.6" transform="matrix(0.8661 -0.4999 0.4999 0.8661 -63.8415 200.0855)" class="st1" width="7.8" height="1.1"/>
			</g>
			<g>
				
					<rect x="332.9" y="214.2" transform="matrix(0.4999 -0.8661 0.8661 0.4999 -17.5696 399.0951)" class="st1" width="7.8" height="1.1"/>
			</g>
		</g>
		<g>
			<path class="st2" d="M255.4,268.7c-1-4.1-4.6-7.1-9-7.1c-1,0-2,0.2-2.9,0.5c0-0.4,0.1-0.8,0.1-1.2c0-5.8-4.7-10.6-10.6-10.6
				s-10.6,4.7-10.6,10.6c0,0.4,0,0.7,0.1,1.1c-0.8-0.2-1.6-0.3-2.4-0.3c-5.1,0-9.3,4.2-9.3,9.3c0,5.1,4.2,9.3,9.3,9.3H270
				C270,280.2,269.7,270.3,255.4,268.7z"/>
		</g>
		<g>
			<path class="st2" d="M605.9,355.1c-1-4.1-4.6-7.1-9-7.1c-1,0-2,0.2-2.9,0.5c0-0.4,0.1-0.8,0.1-1.2c0-5.8-4.7-10.6-10.6-10.6
				c-5.8,0-10.6,4.7-10.6,10.6c0,0.4,0,0.7,0.1,1.1c-0.8-0.2-1.6-0.3-2.4-0.3c-5.1,0-9.3,4.2-9.3,9.3c0,5.1,4.2,9.3,9.3,9.3h49.8
				C620.4,366.6,620.1,356.8,605.9,355.1z"/>
		</g>
		<g>
			<path class="st2" d="M413.4,322.3c-1.2-4.8-5.4-8.3-10.5-8.3c-1.2,0-2.3,0.2-3.4,0.6c0.1-0.5,0.1-1,0.1-1.5
				c0-6.8-5.5-12.4-12.4-12.4c-6.8,0-12.4,5.5-12.4,12.4c0,0.4,0,0.9,0.1,1.3c-0.9-0.2-1.8-0.4-2.8-0.4c-6,0-10.9,4.9-10.9,10.9
				c0,6,4.9,10.9,10.9,10.9h58.4C430.4,335.7,430.1,324.2,413.4,322.3z"/>
		</g>
		<g>
			<path class="st2" d="M521.2,283c-0.7,0-1.4,0.1-2.1,0.2c0-0.3,0-0.6,0-0.8c0-4.8-3.9-8.7-8.7-8.7c-2.3,0-4.4,0.9-5.9,2.4
				c-1.6-1.5-3.6-2.4-5.9-2.4c-4,0-7.4,2.7-8.4,6.4c-0.2,0-0.4,0-0.5,0c-4.8,0-8.7,3.9-8.7,8.7c0,0-14-4.5-16.5,8.7h25.2h19.9H530
				h2.7h1.6c0-0.4,0.1-0.8,0.1-1.2C534.3,288.9,528.4,283,521.2,283z"/>
		</g>
		<g>
			<path class="st2" d="M147.9,311.6c-0.7,0-1.4,0.1-2.1,0.2c0-0.3,0-0.6,0-0.8c0-4.8-3.9-8.7-8.7-8.7c-2.3,0-4.4,0.9-5.9,2.4
				c-1.6-1.5-3.6-2.4-5.9-2.4c-4,0-7.4,2.7-8.4,6.4c-0.2,0-0.4,0-0.5,0c-4.8,0-8.7,3.9-8.7,8.7c0,0-14-4.5-16.5,8.7h25.2h19.9h20.5
				h2.7h1.6c0-0.4,0.1-0.8,0.1-1.2C161,317.5,155.1,311.6,147.9,311.6z"/>
		</g>
		<g>
			<g>
				<g>
					<path class="st3" d="M448.4,264.7h-8.5c-0.7,0-1.2-0.5-1.2-1.2l0,0c0-0.7,0.5-1.2,1.2-1.2h8.5c0.7,0,1.2,0.5,1.2,1.2l0,0
						C449.6,264.2,449,264.7,448.4,264.7z"/>
				</g>
				<g>
					<polygon class="st4" points="390.2,253.4 387,241.9 390.8,241.9 403.5,254 					"/>
				</g>
				<g>
					<path class="st3" d="M456.1,252.6H389c-1.2,0-2.2,1-2.2,2.2l0,0c0,1,0.7,1.9,1.7,2.1l8.5,1.9c1.5,0.3,2.8,1,4,1.9h0
						c1.8,1.4,4,2.1,6.3,2.1h49c2.9,0,5.2-2.3,5.1-5.2C461.3,254.8,458.8,252.6,456.1,252.6z"/>
				</g>
				<g>
					<polygon class="st4" points="452.5,260.1 411.1,251.4 405.3,251.4 421.2,260.6 					"/>
				</g>
				<g>
					<path class="st4" d="M407.3,262.8h49c2.1,0,4-1.3,4.7-3.2h-61.9c0.7,0.3,1.3,0.7,1.8,1.1C402.8,262,405,262.8,407.3,262.8z"/>
				</g>
				<g>
					<path class="st4" d="M454.7,254.3h-1.1v3.1h5.9c0,0,0,0,0-0.1C458.6,255.5,456.7,254.3,454.7,254.3z"/>
				</g>
			</g>
			<g>
				<rect x="345.3" y="254.9" class="st4" width="34" height="1.8"/>
			</g>
			<g>
				<rect x="324.3" y="263" class="st4" width="54.6" height="1.8"/>
			</g>
		</g>
		<g>
			<g>
				<path class="st5" d="M140.8,364c2.2-3.8,3.4-8.3,3.1-13c-0.6-11.7-10-21.3-21.7-22.1c-13.7-0.9-25,9.9-25,23.3
					c0,4.2,1.1,8.1,3,11.5c2.6,4.6,2.1,10.4-1.6,14.3c-5.5,5.9-8.6,13.9-8,22.7c1.1,14.8,13,26.7,27.7,27.7
					c17.6,1.2,32.2-12.6,32.2-29.9c0-7.9-3.1-15.1-8.1-20.5C138.9,374.2,138.2,368.5,140.8,364z"/>
			</g>
			<g>
				<path class="st3" d="M120.6,389.5c-1.1,0-1.9,0.9-1.9,1.9v76.3c0,1.1,0.9,1.9,1.9,1.9c1.1,0,1.9-0.9,1.9-1.9v-76.3
					C122.5,390.4,121.6,389.5,120.6,389.5z"/>
			</g>
		</g>
		<g>
			<g>
				<path class="st5" d="M172.2,331c2-3.4,3-7.3,2.8-11.5c-0.5-10.4-8.9-18.9-19.2-19.6c-12.1-0.8-22.2,8.7-22.2,20.7
					c0,3.7,1,7.2,2.7,10.2c2.3,4.1,1.8,9.3-1.4,12.7c-4.9,5.2-7.7,12.3-7.1,20.1c0.9,13.1,11.5,23.7,24.6,24.6
					c15.6,1.1,28.5-11.2,28.5-26.5c0-7-2.7-13.4-7.2-18.2C170.5,340.1,169.9,335,172.2,331z"/>
			</g>
			<g>
				<path class="st3" d="M154.2,353.7c-0.9,0-1.7,0.8-1.7,1.7v67.7c0,0.9,0.8,1.7,1.7,1.7c0.9,0,1.7-0.8,1.7-1.7v-67.7
					C155.9,354.4,155.2,353.7,154.2,353.7z"/>
			</g>
		</g>
		<g>
			<g>
				<path class="st5" d="M462.2,308.3c2.2-3.8,3.4-8.2,3.1-13c-0.6-11.7-10-21.2-21.7-22c-13.7-0.9-25,9.9-25,23.3
					c0,4.2,1.1,8.1,3,11.5c2.6,4.6,2.1,10.4-1.6,14.3c-5.5,5.8-8.6,13.9-8,22.7c1.1,14.7,13,26.6,27.7,27.7
					c17.5,1.2,32.1-12.6,32.1-29.9c0-7.9-3.1-15.1-8.1-20.5C460.4,318.5,459.6,312.8,462.2,308.3z"/>
			</g>
			<g>
				<path class="st3" d="M442,333.8c-1.1,0-1.9,0.9-1.9,1.9v76.2c0,1.1,0.9,1.9,1.9,1.9c1.1,0,1.9-0.9,1.9-1.9v-76.2
					C443.9,334.7,443.1,333.8,442,333.8z"/>
			</g>
		</g>
		<g>
			<g>
				<path class="st5" d="M495.5,344.8c2-3.4,3-7.3,2.8-11.5c-0.5-10.4-8.9-18.9-19.2-19.6c-12.1-0.8-22.2,8.7-22.2,20.7
					c0,3.7,1,7.2,2.7,10.2c2.3,4.1,1.8,9.3-1.4,12.7c-4.9,5.2-7.7,12.3-7.1,20.1c0.9,13.1,11.5,23.7,24.6,24.6
					c15.6,1.1,28.5-11.2,28.5-26.5c0-7-2.7-13.4-7.2-18.2C493.8,353.9,493.2,348.8,495.5,344.8z"/>
			</g>
			<g>
				<path class="st3" d="M477.5,367.4c-0.9,0-1.7,0.8-1.7,1.7v67.7c0,0.9,0.8,1.7,1.7,1.7c0.9,0,1.7-0.8,1.7-1.7v-67.7
					C479.2,368.2,478.5,367.4,477.5,367.4z"/>
			</g>
		</g>
		<g>
			<g>
				
					<rect x="546.5" y="271.9" transform="matrix(0.9767 0.2145 -0.2145 0.9767 74.7722 -115.5843)" class="st6" width="46.7" height="29.5"/>
			</g>
			<g>
				
					<rect x="518.7" y="294.7" transform="matrix(0.9767 0.2145 -0.2145 0.9767 91.9389 -109.8121)" class="st6" width="66.4" height="147.9"/>
			</g>
			<g>
				
					<rect x="502.8" y="424.3" transform="matrix(0.9767 0.2145 -0.2145 0.9767 107.015 -104.7441)" class="st1" width="66.4" height="32.7"/>
			</g>
			<g>
				
					<rect x="534" y="296.4" transform="matrix(0.9767 0.2145 -0.2145 0.9767 77.3371 -114.7214)" class="st1" width="66.4" height="5"/>
			</g>
			<g>
				
					<rect x="528.6" y="321.1" transform="matrix(0.9767 0.2145 -0.2145 0.9767 82.5071 -112.9832)" class="st1" width="66.4" height="5"/>
			</g>
			<g>
				
					<rect x="523.1" y="345.8" transform="matrix(0.9767 0.2145 -0.2145 0.9767 87.6778 -111.2456)" class="st1" width="66.4" height="5"/>
			</g>
			<g>
				
					<rect x="517.7" y="370.5" transform="matrix(0.9767 0.2145 -0.2145 0.9767 92.848 -109.5075)" class="st1" width="66.4" height="5"/>
			</g>
			<g>
				
					<rect x="512.3" y="395.2" transform="matrix(0.9767 0.2145 -0.2145 0.9767 98.0179 -107.7691)" class="st1" width="66.4" height="5"/>
			</g>
			<g>
				<path class="st1" d="M542.1,318.1l-8.7-1.9l2.9-13.1c0.5-2.4,2.9-3.9,5.3-3.4l0,0c2.4,0.5,3.9,2.9,3.4,5.3L542.1,318.1z"/>
			</g>
			<g>
				<path class="st1" d="M554.5,320.8l-8.7-1.9l2.9-13.1c0.5-2.4,2.9-3.9,5.3-3.4l0,0c2.4,0.5,3.9,2.9,3.4,5.3L554.5,320.8z"/>
			</g>
			<g>
				<path class="st1" d="M557.6,295.3l-8.7-1.9l2.9-13.1c0.5-2.4,2.9-3.9,5.3-3.4l0,0c2.4,0.5,3.9,2.9,3.4,5.3L557.6,295.3z"/>
			</g>
			<g>
				<path class="st1" d="M571.7,298.4l-8.7-1.9l2.9-13.1c0.5-2.4,2.9-3.9,5.3-3.4l0,0c2.4,0.5,3.9,2.9,3.4,5.3L571.7,298.4z"/>
			</g>
			<g>
				<path class="st1" d="M585.7,301.5l-8.7-1.9l2.9-13.1c0.5-2.4,2.9-3.9,5.3-3.4v0c2.4,0.5,3.9,2.9,3.4,5.3L585.7,301.5z"/>
			</g>
			<g>
				<path class="st1" d="M566.9,323.6l-8.7-1.9l2.9-13.1c0.5-2.4,2.9-3.9,5.3-3.4l0,0c2.4,0.5,3.9,2.9,3.4,5.3L566.9,323.6z"/>
			</g>
			<g>
				<path class="st1" d="M579.3,326.3l-8.7-1.9l2.9-13.1c0.5-2.4,2.9-3.9,5.3-3.4l0,0c2.4,0.5,3.9,2.9,3.4,5.3L579.3,326.3z"/>
			</g>
			<g>
				<path class="st1" d="M591.7,329l-8.7-1.9l2.9-13.1c0.5-2.4,2.9-3.9,5.3-3.4l0,0c2.4,0.5,3.9,2.9,3.4,5.3L591.7,329z"/>
			</g>
			<g>
				<path class="st1" d="M536.6,342.8l-8.7-1.9l2.9-13.1c0.5-2.4,2.9-3.9,5.3-3.4l0,0c2.4,0.5,3.9,2.9,3.4,5.3L536.6,342.8z"/>
			</g>
			<g>
				<path class="st1" d="M549,345.5l-8.7-1.9l2.9-13.1c0.5-2.4,2.9-3.9,5.3-3.4l0,0c2.4,0.5,3.9,2.9,3.4,5.3L549,345.5z"/>
			</g>
			<g>
				<path class="st1" d="M561.4,348.2l-8.7-1.9l2.9-13.1c0.5-2.4,2.9-3.9,5.3-3.4l0,0c2.4,0.5,3.9,2.9,3.4,5.3L561.4,348.2z"/>
			</g>
			<g>
				<path class="st1" d="M573.8,351l-8.7-1.9l2.9-13.1c0.5-2.4,2.9-3.9,5.3-3.4l0,0c2.4,0.5,3.9,2.9,3.4,5.3L573.8,351z"/>
			</g>
			<g>
				<path class="st1" d="M586.2,353.7l-8.7-1.9l2.9-13.1c0.5-2.4,2.9-3.9,5.3-3.4l0,0c2.4,0.5,3.9,2.9,3.4,5.3L586.2,353.7z"/>
			</g>
			<g>
				<path class="st1" d="M531.2,367.5l-8.7-1.9l2.9-13.1c0.5-2.4,2.9-3.9,5.3-3.4l0,0c2.4,0.5,3.9,2.9,3.4,5.3L531.2,367.5z"/>
			</g>
			<g>
				<path class="st1" d="M543.6,370.2l-8.7-1.9l2.9-13.1c0.5-2.4,2.9-3.9,5.3-3.4l0,0c2.4,0.5,3.9,2.9,3.4,5.3L543.6,370.2z"/>
			</g>
			<g>
				<path class="st1" d="M556,372.9l-8.7-1.9l2.9-13.1c0.5-2.4,2.9-3.9,5.3-3.4l0,0c2.4,0.5,3.9,2.9,3.4,5.3L556,372.9z"/>
			</g>
			<g>
				<path class="st1" d="M568.4,375.7l-8.7-1.9l2.9-13.1c0.5-2.4,2.9-3.9,5.3-3.4l0,0c2.4,0.5,3.9,2.9,3.4,5.3L568.4,375.7z"/>
			</g>
			<g>
				<path class="st1" d="M580.8,378.4l-8.7-1.9l2.9-13.1c0.5-2.4,2.9-3.9,5.3-3.4l0,0c2.4,0.5,3.9,2.9,3.4,5.3L580.8,378.4z"/>
			</g>
			<g>
				<path class="st1" d="M525.8,392.2l-8.7-1.9l2.9-13.1c0.5-2.4,2.9-3.9,5.3-3.4l0,0c2.4,0.5,3.9,2.9,3.4,5.3L525.8,392.2z"/>
			</g>
			<g>
				<path class="st1" d="M538.2,394.9l-8.7-1.9l2.9-13.1c0.5-2.4,2.9-3.9,5.3-3.4l0,0c2.4,0.5,3.9,2.9,3.4,5.3L538.2,394.9z"/>
			</g>
			<g>
				<path class="st1" d="M550.6,397.6l-8.7-1.9l2.9-13.1c0.5-2.4,2.9-3.9,5.3-3.4l0,0c2.4,0.5,3.9,2.9,3.4,5.3L550.6,397.6z"/>
			</g>
			<g>
				<path class="st1" d="M563,400.3l-8.7-1.9l2.9-13.1c0.5-2.4,2.9-3.9,5.3-3.4l0,0c2.4,0.5,3.9,2.9,3.4,5.3L563,400.3z"/>
			</g>
			<g>
				<path class="st1" d="M575.4,403.1l-8.7-1.9l2.9-13.1c0.5-2.4,2.9-3.9,5.3-3.4l0,0c2.4,0.5,3.9,2.9,3.4,5.3L575.4,403.1z"/>
			</g>
			<g>
				<path class="st1" d="M519.4,421.3l-8.7-1.9l2.9-13.1c0.5-2.4,2.9-3.9,5.3-3.4l0,0c2.4,0.5,3.9,2.9,3.4,5.3L519.4,421.3z"/>
			</g>
			<g>
				<path class="st1" d="M531.8,424l-8.7-1.9L526,409c0.5-2.4,2.9-3.9,5.3-3.4l0,0c2.4,0.5,3.9,2.9,3.4,5.3L531.8,424z"/>
			</g>
			<g>
				<path class="st1" d="M544.2,426.8l-8.7-1.9l2.9-13.1c0.5-2.4,2.9-3.9,5.3-3.4l0,0c2.4,0.5,3.9,2.9,3.4,5.3L544.2,426.8z"/>
			</g>
			<g>
				<path class="st1" d="M556.6,429.5l-8.7-1.9l2.9-13.1c0.5-2.4,2.9-3.9,5.3-3.4l0,0c2.4,0.5,3.9,2.9,3.4,5.3L556.6,429.5z"/>
			</g>
			<g>
				<path class="st1" d="M569,432.2l-8.7-1.9l2.9-13.1c0.5-2.4,2.9-3.9,5.3-3.4l0,0c2.4,0.5,3.9,2.9,3.4,5.3L569,432.2z"/>
			</g>
			<g>
				<path class="st7" d="M513.4,448.4l-8.7-1.9l2.9-13.1c0.5-2.4,2.9-3.9,5.3-3.4l0,0c2.4,0.5,3.9,2.9,3.4,5.3L513.4,448.4z"/>
			</g>
			<g>
				<path class="st7" d="M525.8,451.1l-8.7-1.9l2.9-13.1c0.5-2.4,2.9-3.9,5.3-3.4h0c2.4,0.5,3.9,2.9,3.4,5.3L525.8,451.1z"/>
			</g>
			<g>
				<path class="st7" d="M538.2,453.8l-8.7-1.9l2.9-13.1c0.5-2.4,2.9-3.9,5.3-3.4l0,0c2.4,0.5,3.9,2.9,3.4,5.3L538.2,453.8z"/>
			</g>
			<g>
				<path class="st7" d="M550.6,456.6l-8.7-1.9l2.9-13.1c0.5-2.4,2.9-3.9,5.3-3.4h0c2.4,0.5,3.9,2.9,3.4,5.3L550.6,456.6z"/>
			</g>
			<g>
				<path class="st7" d="M563,459.3l-8.7-1.9l2.9-13.1c0.5-2.4,2.9-3.9,5.3-3.4l0,0c2.4,0.5,3.9,2.9,3.4,5.3L563,459.3z"/>
			</g>
			<g>
				
					<rect x="549.1" y="272.2" transform="matrix(0.9767 0.2145 -0.2145 0.9767 72.269 -116.4262)" class="st1" width="46.7" height="5"/>
			</g>
			<g>
				<polygon class="st7" points="574.6,469 576.1,462 490.1,443.1 484.4,469 				"/>
			</g>
		</g>
		<g>
			<g>
				<rect x="378.6" y="350.3" class="st8" width="37.3" height="21"/>
			</g>
			<g>
				<rect x="391.2" y="359.4" class="st9" width="12.2" height="10"/>
			</g>
			<g>
				<rect x="374" y="368.1" class="st9" width="46.6" height="5.8"/>
			</g>
			<g>
				<rect x="372.1" y="376.4" class="st9" width="50.5" height="6.2"/>
			</g>
			<g>
				<rect x="373.2" y="365.6" class="st8" width="48.2" height="3.3"/>
			</g>
			<g>
				<rect x="371.1" y="373.4" class="st8" width="52.4" height="4"/>
			</g>
			<g>
				<rect x="370.4" y="384.6" class="st9" width="53.7" height="5.7"/>
			</g>
			<g>
				<rect x="369.6" y="384.8" class="st9" width="55.4" height="6.1"/>
			</g>
			<g>
				<rect x="368.4" y="381.8" class="st8" width="57.8" height="3.7"/>
			</g>
			<g>
				<rect x="365.1" y="395.1" class="st9" width="64.4" height="6.6"/>
			</g>
			<g>
				<rect x="363.5" y="391" class="st8" width="67.5" height="4.5"/>
			</g>
			<g>
				<rect x="361.9" y="404.3" class="st9" width="70.8" height="9.6"/>
			</g>
			<g>
				<rect x="360.1" y="401.1" class="st8" width="74.5" height="4"/>
			</g>
			<g>
				<rect x="357.2" y="413.8" class="st9" width="80.2" height="9.8"/>
			</g>
			<g>
				<rect x="355" y="410.8" class="st8" width="84.6" height="4.1"/>
			</g>
			<g>
				<rect x="352.3" y="425.5" class="st9" width="91.3" height="9.8"/>
			</g>
			<g>
				<rect x="349.8" y="422.5" class="st8" width="96.3" height="4.1"/>
			</g>
			<g>
				<rect x="343.4" y="436.9" class="st9" width="109.4" height="9.8"/>
			</g>
			<g>
				<rect x="340.3" y="433.9" class="st8" width="115.4" height="4.1"/>
			</g>
			<g>
				<rect x="336.3" y="447.6" class="st9" width="123.5" height="9.8"/>
			</g>
			<g>
				<rect x="332.9" y="444.6" class="st8" width="130.3" height="4.1"/>
			</g>
			<g>
				<rect x="329" y="459" class="st9" width="138.4" height="9.8"/>
			</g>
			<g>
				<rect x="325.2" y="456" class="st8" width="146" height="4.1"/>
			</g>
			<g>
				<rect x="378.6" y="350.3" class="st9" width="37.3" height="2.9"/>
			</g>
			<g>
				<rect x="378.6" y="355" class="st9" width="37.3" height="2.9"/>
			</g>
			<g>
				<polygon class="st8" points="404.5,366 397.3,366.6 390.2,366 371.7,468.9 397.3,468.9 422.9,468.9 				"/>
			</g>
			<g>
				<polygon class="st9" points="374.8,469 392.8,364.3 397.3,364.6 401.8,364.3 419.4,469 				"/>
			</g>
		</g>
		<g>
			<g>
				<rect x="293.1" y="247" class="st1" width="2.2" height="10.9"/>
			</g>
			<g>
				<ellipse class="st1" cx="294.2" cy="247.9" rx="3.5" ry="3.5"/>
			</g>
			<g>
				<rect x="274" y="308.2" class="st6" width="40.6" height="116.3"/>
			</g>
			<g>
				<rect x="270.8" y="301.9" class="st6" width="46.9" height="6.8"/>
			</g>
			<g>
				<polygon class="st6" points="294.3,302.7 294.3,289.1 270.8,301.9 				"/>
			</g>
			<g>
				<polygon class="st6" points="294.3,302.7 294.3,289.1 317.8,301.9 				"/>
			</g>
			<g>
				<rect x="285.1" y="284.9" class="st6" width="18.4" height="12"/>
			</g>
			<g>
				<rect x="285.1" y="265.9" class="st6" width="18.4" height="18.5"/>
			</g>
			<g>
				<rect x="283.1" y="283.6" class="st6" width="22.4" height="3"/>
			</g>
			<g>
				<polygon class="st6" points="305.2,267.1 283,267.1 283,260.8 294.2,254.9 305.2,260.8 				"/>
			</g>
			<g>
				<rect x="288.1" y="268" class="st1" width="12.4" height="13.8"/>
			</g>
			<g>
				<path class="st1" d="M291.5,326.8h-8.7v-9.5c0-2.4,1.9-4.3,4.3-4.3l0,0c2.4,0,4.3,1.9,4.3,4.3V326.8z"/>
			</g>
			<g>
				<path class="st1" d="M304.9,326.8h-8.7v-9.5c0-2.4,1.9-4.3,4.3-4.3l0,0c2.4,0,4.3,1.9,4.3,4.3V326.8z"/>
			</g>
			<g>
				<path class="st1" d="M291.5,412.5h-8.7v-36.3c0-2.4,1.9-4.3,4.3-4.3l0,0c2.4,0,4.3,1.9,4.3,4.3V412.5z"/>
			</g>
			<g>
				<path class="st1" d="M304.9,412.5h-8.7v-36.3c0-2.4,1.9-4.3,4.3-4.3l0,0c2.4,0,4.3,1.9,4.3,4.3V412.5z"/>
			</g>
			<g>
				<rect x="292.2" y="269.8" class="st1" width="4.7" height="6"/>
			</g>
		</g>
		<g>
			<g>
				<rect x="328.5" y="328.6" class="st10" width="43.3" height="43.5"/>
			</g>
			<g>
				<rect x="330.7" y="371.3" class="st10" width="38.9" height="56.4"/>
			</g>
			<g>
				<rect x="331.2" y="364.1" class="st0" width="3.7" height="5.9"/>
			</g>
			<g>
				<rect x="333.5" y="375.7" class="st0" width="3.7" height="18.3"/>
			</g>
			<g>
				<rect x="340.3" y="375.7" class="st0" width="3.7" height="18.3"/>
			</g>
			<g>
				<rect x="355.3" y="375.7" class="st0" width="3.7" height="18.3"/>
			</g>
			<g>
				<rect x="363" y="375.7" class="st0" width="3.7" height="18.3"/>
			</g>
			<g>
				<rect x="333.5" y="402.2" class="st0" width="3.7" height="18.3"/>
			</g>
			<g>
				<rect x="340.3" y="402.2" class="st0" width="3.7" height="18.3"/>
			</g>
			<g>
				<rect x="355.3" y="402.2" class="st0" width="3.7" height="18.3"/>
			</g>
			<g>
				<rect x="363" y="402.2" class="st0" width="3.7" height="18.3"/>
			</g>
			<g>
				<rect x="339.4" y="364.1" class="st0" width="3.7" height="5.9"/>
			</g>
			<g>
				<rect x="347.6" y="364.1" class="st0" width="3.7" height="5.9"/>
			</g>
			<g>
				<rect x="355.9" y="364.1" class="st0" width="3.7" height="5.9"/>
			</g>
			<g>
				<rect x="364.1" y="364.1" class="st0" width="3.7" height="5.9"/>
			</g>
			<g>
				<circle class="st0" cx="350.2" cy="346.3" r="15.2"/>
			</g>
			<g>
				<circle class="st10" cx="350.2" cy="346.3" r="2.1"/>
			</g>
			<g>
				<rect x="349.6" y="331.6" class="st10" width="1.2" height="4.1"/>
			</g>
			<g>
				<rect x="349.6" y="356.2" class="st10" width="1.2" height="4.1"/>
			</g>
			<g>
				
					<rect x="337.2" y="343.9" transform="matrix(6.123234e-17 -1 1 6.123234e-17 -8.0938 683.7841)" class="st10" width="1.2" height="4.1"/>
			</g>
			<g>
				
					<rect x="361.9" y="343.9" transform="matrix(6.123234e-17 -1 1 6.123234e-17 16.577 708.4549)" class="st10" width="1.2" height="4.1"/>
			</g>
			<g>
				
					<rect x="355.8" y="333.3" transform="matrix(0.8624 0.5062 -0.5062 0.8624 218.7556 -134.2867)" class="st10" width="1.2" height="4.1"/>
			</g>
			<g>
				
					<rect x="343.3" y="354.5" transform="matrix(0.8624 0.5062 -0.5062 0.8624 227.8072 -125.0383)" class="st10" width="1.2" height="4.1"/>
			</g>
			<g>
				
					<rect x="338.9" y="337.7" transform="matrix(0.5062 -0.8624 0.8624 0.5062 -125.2976 460.547)" class="st10" width="1.2" height="4.1"/>
			</g>
			<g>
				
					<rect x="360.2" y="350.1" transform="matrix(0.5062 -0.8624 0.8624 0.5062 -125.5622 485.062)" class="st10" width="1.2" height="4.1"/>
			</g>
			<g>
				
					<rect x="360.6" y="338.4" transform="matrix(0.4446 0.8957 -0.8957 0.4446 505.5883 -134.4737)" class="st10" width="1.2" height="4.1"/>
			</g>
			<g>
				
					<rect x="338.5" y="349.4" transform="matrix(0.4446 0.8957 -0.8957 0.4446 503.1393 -108.5873)" class="st10" width="1.2" height="4.1"/>
			</g>
			<g>
				
					<rect x="344.1" y="332.9" transform="matrix(0.8957 -0.4446 0.4446 0.8957 -112.9484 188.1654)" class="st10" width="1.2" height="4.1"/>
			</g>
			<g>
				
					<rect x="355.1" y="355" transform="matrix(0.8957 -0.4446 0.4446 0.8957 -121.6295 195.346)" class="st10" width="1.2" height="4.1"/>
			</g>
			<g>
				<path class="st10" d="M361.2,312.6h-11h-11l-6.9,6.9v10.4c-0.2-0.2,17.9,0,17.9,0s18.1-0.2,17.9,0v-10.4L361.2,312.6z"/>
			</g>
			<g>
				<rect x="334.1" y="321.3" class="st0" width="3.6" height="5.9"/>
			</g>
			<g>
				<rect x="341.4" y="321.3" class="st0" width="3.6" height="5.9"/>
			</g>
			<g>
				<rect x="348.6" y="321.3" class="st0" width="3.6" height="5.9"/>
			</g>
			<g>
				<rect x="355.9" y="321.3" class="st0" width="3.6" height="5.9"/>
			</g>
			<g>
				<rect x="363.2" y="321.3" class="st0" width="3.6" height="5.9"/>
			</g>
			<g>
				<rect x="341.5" y="309.1" class="st10" width="17.3" height="4.6"/>
			</g>
			<g>
				<rect x="341.5" y="299.7" class="st10" width="17.3" height="2.3"/>
			</g>
			<g>
				<rect x="342.7" y="300.8" class="st10" width="15" height="11"/>
			</g>
			<g>
				<polygon class="st10" points="351.2,287 350.2,279.7 349.1,287 342.5,300.1 350.2,299.9 357.9,300.1 				"/>
			</g>
			<g>
				<rect x="344.3" y="303" class="st0" width="2.8" height="5.1"/>
			</g>
			<g>
				<rect x="348.9" y="303" class="st0" width="2.8" height="5.1"/>
			</g>
			<g>
				<rect x="353.6" y="303" class="st0" width="2.8" height="5.1"/>
			</g>
		</g>
		<g>
			<g>
				<path class="st10" d="M615.9,419.2h-5.7v-11.3h13.4c0,0-6.8-6.4-12.7-15.6h-3.5v-14.6h6.5c-9.5-4.2-18.9-12.4-22.9-15.6v-8.2
					h-0.5H590h-0.5v8.2c-4.1,3.2-13.4,11.4-22.9,15.6h6.5v14.6h-3.5c-5.9,9.1-12.7,15.6-12.7,15.6h13.4v11.3h-5.7
					c-6.2,12.4-15.8,19.4-15.8,19.4H590h0.4h41.2C631.7,438.6,622,431.6,615.9,419.2z M575.9,377.7H590h0.4h14.2v14.6h-14.2H590
					h-14.2V377.7z M590,419.2h-17v-11.3h17h0.4h17v11.3h-17H590z"/>
			</g>
			<g>
				<rect x="567.1" y="428.7" class="st10" width="3.8" height="38"/>
			</g>
			<g>
				<rect x="611.5" y="428.7" class="st10" width="3.8" height="38"/>
			</g>
		</g>
		<g>
			<g>
				<g>
					<path class="st8" d="M269.2,379.2l-6.8-41.4l-11.1-105.6h1.3v-1.8h-7.5v1.8h1.2l-11.1,105.6l-8.1,41.4l-19.6,42.7h11.3
						l14.8-36.4h29.2l15.9,36.4h10.2L269.2,379.2z M249,244.3l6.9,87.3h-13.7L249,244.3z M234.3,377.4l6.7-39h15.5l6,39H234.3z"/>
				</g>
			</g>
			<g>
				<g>
					<polygon class="st8" points="248.8,206.2 246.7,236.9 248.8,238.2 250.8,236.9 					"/>
				</g>
			</g>
			<g>
				<g>
					<polygon class="st8" points="223.5,405.4 221.9,403.7 243.7,382.6 254.5,382.6 273.4,403.3 271.8,404.9 253.5,384.9 
						244.6,384.9 					"/>
				</g>
			</g>
			<g>
				<g>
					<polygon class="st8" points="246.4,256.5 252.1,256.5 249.1,239.9 					"/>
				</g>
			</g>
			<g>
				<g>
					<rect x="231.5" y="331.6" class="st8" width="33.2" height="7.1"/>
				</g>
			</g>
			<g>
				<g>
					<rect x="221.7" y="377.7" class="st8" width="53.3" height="7.1"/>
				</g>
			</g>
			<g>
				<g>
					<g>
						<g>
							
								<rect x="248" y="259" transform="matrix(0.7295 -0.6839 0.6839 0.7295 -113.8432 242.0643)" class="st8" width="2.3" height="12"/>
						</g>
					</g>
				</g>
				<g>
					<g>
						<g>
							
								<rect x="248" y="273.8" transform="matrix(0.7295 -0.6839 0.6839 0.7295 -123.9718 246.0696)" class="st8" width="2.3" height="12"/>
						</g>
					</g>
				</g>
				<g>
					<g>
						<g>
							
								<rect x="248" y="285.6" transform="matrix(0.7295 -0.6839 0.6839 0.7295 -134.1012 250.0809)" class="st8" width="2.3" height="18"/>
						</g>
					</g>
				</g>
				<g>
					<g>
						<g>
							
								<rect x="248" y="297.8" transform="matrix(0.7295 -0.6839 0.6839 0.7295 -144.2287 254.0764)" class="st8" width="2.3" height="23.3"/>
						</g>
					</g>
				</g>
				<g>
					<g>
						<g>
							
								<rect x="248" y="313.3" transform="matrix(0.7295 -0.6839 0.6839 0.7295 -154.3573 258.0818)" class="st8" width="2.3" height="21.8"/>
						</g>
					</g>
				</g>
			</g>
			<g>
				<g>
					<g>
						<g>
							
								<rect x="243.1" y="263.8" transform="matrix(0.6839 -0.7295 0.7295 0.6839 -114.5652 265.5116)" class="st8" width="12" height="2.3"/>
						</g>
					</g>
				</g>
				<g>
					<g>
						<g>
							
								<rect x="243.1" y="278.6" transform="matrix(0.6839 -0.7295 0.7295 0.6839 -125.3691 270.1923)" class="st8" width="12" height="2.3"/>
						</g>
					</g>
				</g>
				<g>
					<g>
						<g>
							
								<rect x="240.1" y="293.5" transform="matrix(0.6839 -0.7295 0.7295 0.6839 -136.1728 274.8647)" class="st8" width="18" height="2.3"/>
						</g>
					</g>
				</g>
				<g>
					<g>
						<g>
							
								<rect x="237.5" y="308.3" transform="matrix(0.6839 -0.7295 0.7295 0.6839 -146.9775 279.5551)" class="st8" width="23.3" height="2.3"/>
						</g>
					</g>
				</g>
				<g>
					<g>
						<g>
							
								<rect x="238.2" y="323.1" transform="matrix(0.6839 -0.7295 0.7295 0.6839 -157.7816 284.236)" class="st8" width="21.8" height="2.3"/>
						</g>
					</g>
				</g>
			</g>
			<g>
				<g>
					
						<rect x="230.3" y="348.2" transform="matrix(0.7029 -0.7113 0.7113 0.7029 -175.1745 279.2624)" class="st8" width="32.8" height="2.3"/>
				</g>
			</g>
			<g>
				<g>
					
						<rect x="226.9" y="363.9" transform="matrix(0.7036 -0.7106 0.7106 0.7036 -186.3463 283.3932)" class="st8" width="39.4" height="2.3"/>
				</g>
			</g>
			<g>
				<g>
					
						<rect x="240" y="373.5" transform="matrix(0.7227 -0.6911 0.6911 0.7227 -188.768 278.8342)" class="st8" width="26.2" height="2.3"/>
				</g>
			</g>
			<g>
				<g>
					
						<rect x="248.7" y="332.4" transform="matrix(0.7069 -0.7074 0.7074 0.7069 -174.6187 279.4354)" class="st8" width="2.3" height="36.1"/>
				</g>
			</g>
			<g>
				<g>
					
						<rect x="247.6" y="345.4" transform="matrix(0.7106 -0.7036 0.7036 0.7106 -184.8852 280.6738)" class="st8" width="2.3" height="39.4"/>
				</g>
			</g>
			<g>
				<g>
					
						<rect x="241" y="361.6" transform="matrix(0.6912 -0.7226 0.7226 0.6912 -195.9842 290.6768)" class="st8" width="2.3" height="26.2"/>
				</g>
			</g>
		</g>
		<g>
			<g>
				<polygon class="st11" points="277.7,460.9 265.7,376.7 255.2,362.7 244.7,376.7 232.6,460.9 229.6,461.4 229.6,466.4 
					255.2,466.4 280.7,466.4 280.7,461.4 				"/>
			</g>
			<g>
				<polygon class="st11" points="255.2,412.8 230.3,412.8 239.3,421.8 255.2,421.8 271.1,421.8 280.1,412.8 				"/>
			</g>
			<g>
				<rect x="252.9" y="379.7" class="st10" width="4.5" height="8.5"/>
			</g>
			<g>
				<rect x="252.9" y="443.2" class="st10" width="4.5" height="8.5"/>
			</g>
			<g>
				<rect x="245.7" y="399.4" class="st10" width="4.5" height="8.5"/>
			</g>
			<g>
				<rect x="260.4" y="399.4" class="st10" width="4.5" height="8.5"/>
			</g>
			<g>
				<rect x="245.7" y="426.7" class="st10" width="4.5" height="8.5"/>
			</g>
			<g>
				<rect x="260.4" y="426.7" class="st10" width="4.5" height="8.5"/>
			</g>
			<g>
				<g>
					<g>
						<g>
							
								<rect x="270" y="340.5" transform="matrix(0.7385 0.6743 -0.6743 0.7385 305.6383 -93.0885)" class="st10" width="5.7" height="13.9"/>
						</g>
						<g>
							
								<rect x="250.5" y="351.4" transform="matrix(0.6743 -0.7385 0.7385 0.6743 -173.5177 310.9182)" class="st10" width="30.4" height="1.5"/>
						</g>
					</g>
					<g>
						<g>
							
								<rect x="236.7" y="338.8" transform="matrix(0.6743 -0.7384 0.7384 0.6743 -177.3269 289.4545)" class="st10" width="5.7" height="13.9"/>
						</g>
						<g>
							
								<rect x="243.4" y="337.6" transform="matrix(0.6743 -0.7385 0.7385 0.6743 -181.0387 295.2598)" class="st10" width="1.5" height="30.4"/>
						</g>
					</g>
					<g>
						<g>
							
								<rect x="235" y="372.1" transform="matrix(-0.7385 -0.6743 0.6743 -0.7385 157.7716 819.3804)" class="st10" width="5.7" height="13.9"/>
						</g>
						<g>
							
								<rect x="229.7" y="373.6" transform="matrix(0.6743 -0.7385 0.7385 0.6743 -196.696 302.7806)" class="st10" width="30.4" height="1.5"/>
						</g>
					</g>
					<g>
						<g>
							
								<rect x="268.3" y="373.8" transform="matrix(-0.6743 0.7385 -0.7385 -0.6743 735.1421 437.3216)" class="st10" width="5.7" height="13.9"/>
						</g>
						<g>
							
								<rect x="265.6" y="358.5" transform="matrix(0.6743 -0.7385 0.7385 0.6743 -189.1754 318.4413)" class="st10" width="1.5" height="30.4"/>
						</g>
					</g>
				</g>
				<g>
					<circle class="st10" cx="255.5" cy="363.4" r="2.3"/>
				</g>
			</g>
		</g>
		<g>
			<g>
				<g>
					<rect x="173.7" y="363.8" class="st12" width="51.8" height="101.7"/>
				</g>
				<g>
					<rect x="173.7" y="363.8" class="st13" width="51.8" height="7.2"/>
				</g>
				<g>
					<rect x="171.5" y="361.4" class="st13" width="56.2" height="4.4"/>
				</g>
				<g>
					<g>
						<rect x="176.2" y="366.6" class="st14" width="3.8" height="3.5"/>
					</g>
					<g>
						<rect x="183.4" y="366.6" class="st14" width="3.8" height="3.5"/>
					</g>
					<g>
						<rect x="190.5" y="366.6" class="st14" width="3.8" height="3.5"/>
					</g>
					<g>
						<rect x="197.7" y="366.6" class="st14" width="3.8" height="3.5"/>
					</g>
					<g>
						<rect x="204.8" y="366.6" class="st14" width="3.8" height="3.5"/>
					</g>
					<g>
						<rect x="212" y="366.6" class="st14" width="3.8" height="3.5"/>
					</g>
					<g>
						<rect x="219.1" y="366.6" class="st14" width="3.8" height="3.5"/>
					</g>
				</g>
			</g>
			<g>
				<g>
					<rect x="173.7" y="430.7" class="st1" width="51.8" height="35.7"/>
				</g>
				<g>
					<rect x="173.7" y="430.7" class="st15" width="51.8" height="7.2"/>
				</g>
				<g>
					<rect x="171.5" y="428.3" class="st15" width="56.2" height="4.4"/>
				</g>
				<g>
					<g>
						<rect x="176.2" y="433.5" class="st1" width="3.8" height="3.5"/>
					</g>
					<g>
						<rect x="183.4" y="433.5" class="st1" width="3.8" height="3.5"/>
					</g>
					<g>
						<rect x="190.5" y="433.5" class="st1" width="3.8" height="3.5"/>
					</g>
					<g>
						<rect x="197.7" y="433.5" class="st1" width="3.8" height="3.5"/>
					</g>
					<g>
						<rect x="204.8" y="433.5" class="st1" width="3.8" height="3.5"/>
					</g>
					<g>
						<rect x="212" y="433.5" class="st1" width="3.8" height="3.5"/>
					</g>
					<g>
						<rect x="219.1" y="433.5" class="st1" width="3.8" height="3.5"/>
					</g>
				</g>
			</g>
			<g>
				<g>
					<g>
						<polygon class="st1" points="194.1,375.1 178.8,375.1 178.8,377.4 179.9,377.4 179.9,395 193,395 193,377.4 194.1,377.4 
													"/>
					</g>
					<g>
						<rect x="181.1" y="377.5" class="st8" width="10.7" height="4.5"/>
					</g>
					<g>
						<rect x="181.1" y="384.2" class="st8" width="10.7" height="9"/>
					</g>
				</g>
				<g>
					<g>
						<polygon class="st1" points="220.4,375.1 205,375.1 205,377.4 206.1,377.4 206.1,395 219.3,395 219.3,377.4 220.4,377.4 
													"/>
					</g>
					<g>
						<rect x="207.3" y="377.5" class="st8" width="10.7" height="4.5"/>
					</g>
					<g>
						<rect x="207.3" y="384.2" class="st8" width="10.7" height="9"/>
					</g>
				</g>
			</g>
			<g>
				<g>
					<g>
						<polygon class="st1" points="194.1,403.9 178.8,403.9 178.8,406.2 179.9,406.2 179.9,423.8 193,423.8 193,406.2 194.1,406.2 
													"/>
					</g>
					<g>
						<rect x="181.1" y="406.4" class="st8" width="10.7" height="4.5"/>
					</g>
					<g>
						<rect x="181.1" y="413.1" class="st8" width="10.7" height="9"/>
					</g>
				</g>
				<g>
					<g>
						<polygon class="st1" points="220.4,403.9 205,403.9 205,406.2 206.1,406.2 206.1,423.8 219.3,423.8 219.3,406.2 220.4,406.2 
													"/>
					</g>
					<g>
						<rect x="207.3" y="406.4" class="st8" width="10.7" height="4.5"/>
					</g>
					<g>
						<rect x="207.3" y="413.1" class="st8" width="10.7" height="9"/>
					</g>
				</g>
			</g>
			<g>
				<g>
					<polygon class="st16" points="194.1,441.4 178.8,441.4 178.8,443.7 179.9,443.7 179.9,461.3 193,461.3 193,443.7 194.1,443.7 
											"/>
				</g>
				<g>
					<rect x="181.1" y="443.8" class="st8" width="10.7" height="4.5"/>
				</g>
				<g>
					<rect x="181.1" y="450.5" class="st8" width="10.7" height="9"/>
				</g>
			</g>
			<g>
				<g>
					<polygon class="st16" points="219.7,441.4 204.3,441.4 204.3,443.7 205.4,443.7 205.4,461.3 218.6,461.3 218.6,443.7 
						219.7,443.7 					"/>
				</g>
				<g>
					<rect x="206.7" y="443.8" class="st8" width="10.7" height="4.5"/>
				</g>
				<g>
					<rect x="206.7" y="450.5" class="st8" width="10.7" height="9"/>
				</g>
			</g>
		</g>
		<g>
			<g>
				<g>
					<path class="st10" d="M164.5,395.6h-31.9c-1.9,0-3.4,1.5-3.4,3.4v64c0,1.9,1.5,3.4,3.4,3.4h31.9c1.9,0,3.4-1.5,3.4-3.4v-64
						C167.9,397.1,166.4,395.6,164.5,395.6z"/>
				</g>
				<g>
					<path class="st17" d="M163.8,463.2h-30.5c-1.1,0-2-0.9-2-2v-60.6c0-1.1,0.9-2,2-2h30.5c1.1,0,2,0.9,2,2v60.6
						C165.8,462.3,164.9,463.2,163.8,463.2z"/>
				</g>
				<g>
					<path class="st8" d="M133.7,398.7h-1.2c-0.6,0-1.1,0.5-1.1,1.1v23l11.7-10.1L133.7,398.7z"/>
				</g>
				<g>
					<polygon class="st8" points="151,437.9 144.9,435.2 139.4,422.8 131.4,429.9 131.4,457.5 151,448.7 					"/>
				</g>
				<g>
					<path class="st8" d="M156,441.3l-0.3,9.3l-24.4,11.2v0.3c0,0.6,0.5,1.1,1.1,1.1h32.1c0.6,0,1.1-0.5,1.1-1.1v-18.5L156,441.3z"
						/>
				</g>
				<g>
					<polygon class="st8" points="157.6,414.1 156.3,435.8 165.8,438 165.8,407.1 162.3,412.2 					"/>
				</g>
				<g>
					<path class="st8" d="M165.3,399c-0.2-0.1-0.4-0.2-0.7-0.2h-23.8l7.3,12.2l14.3-6.3L165.3,399z"/>
				</g>
				<g>
					<polygon class="st8" points="142.3,420.4 146.8,432.6 152.3,436 153.7,414.3 146.3,415.4 					"/>
				</g>
				<g>
					<g>
						<g>
							<path class="st1" d="M146.5,411.4l-8.8-12.7h-2c-0.1,0-0.1,0-0.2,0l10.2,14.6l9-1.7l-1.9,37.5l-21.4,9.6v1.9l23.1-10.3
								l2.1-40.8L146.5,411.4z"/>
						</g>
					</g>
				</g>
				<g>
					<path class="st10" d="M151.7,401.1h-6.2c-1.7,0-3.1-1.4-3.1-3.1l0,0h12.5l0,0C154.8,399.7,153.4,401.1,151.7,401.1z"/>
				</g>
				<g>
					<circle class="st18" cx="144.9" cy="399.4" r="0.7"/>
				</g>
				<g>
					<path class="st18" d="M152.2,399h-5.1c-0.3,0-0.6,0.3-0.6,0.6s0.3,0.6,0.6,0.6h5.1c0.3,0,0.6-0.3,0.6-0.6S152.5,399,152.2,399z
						"/>
				</g>
			</g>
			<g>
				<g>
					<path class="st16" d="M162.3,430.4c0.2-0.7,0.2-1.3,0.2-2c0-4.9-4-8.8-8.8-8.8c-4.9,0-8.8,4-8.8,8.8c0,0.7,0.1,1.4,0.2,2
						c1.5,8.7,8.6,19,8.6,19S160.8,439.1,162.3,430.4z"/>
				</g>
				<g>
					<circle class="st19" cx="153.7" cy="428.4" r="4.6"/>
				</g>
			</g>
		</g>
		<g>
			<g>
				<rect x="466" y="335.5" class="st14" width="3.9" height="130"/>
				<rect x="461.3" y="347.7" class="st14" width="7" height="4.1"/>
				<rect x="468.6" y="340.2" class="st14" width="7" height="4.1"/>
				<polygon class="st14" points="513.2,348.7 473.4,348.7 473.4,335.9 513.2,335.9 517.1,342.7 				"/>
				<polygon class="st14" points="423.9,342.7 462.8,342.7 462.8,355.5 423.9,355.5 420,348.7 				"/>
				<rect x="468.6" y="368.5" class="st14" width="7" height="4.1"/>
				<polygon class="st14" points="513.5,376.9 473.4,376.9 473.4,364.1 513.5,364.1 517.6,370.9 				"/>
			</g>
			<g>
				<text transform="matrix(1 0 0 1 478.2202 346.227)" class="st10 st23 st24 st25">TRIP</text>
			</g>
			<text transform="matrix(1 0 0 1 426.8588 351.4331)" class="st10 st23 st26 st25">ADVENTURE</text>
			<g>
				<text transform="matrix(1 0 0 1 475.7514 373.2788)" class="st10 st23 st26 st25">TRAVELLING</text>
			</g>
		</g>
		<g>
			<g>
				<rect x="269.6" y="418.8" class="st0" width="74.7" height="41.7"/>
			</g>
			<g>
				<rect x="263.1" y="458.1" class="st12" width="89.1" height="4.4"/>
			</g>
			<g>
				<g>
					<path class="st16" d="M268.3,411.6v47.4H347v-47.4H268.3z M282.3,458.8h-8.8V433c0-2,2-3.5,4.4-3.5s4.4,1.6,4.4,3.5V458.8z
						 M297.2,458.8h-8.8V433c0-2,2-3.5,4.4-3.5c2.4,0,4.4,1.6,4.4,3.5V458.8z M312,458.8h-8.8V433c0-2,2-3.5,4.4-3.5
						c2.4,0,4.4,1.6,4.4,3.5V458.8z M326.9,458.8h-8.8V433c0-2,2-3.5,4.4-3.5c2.4,0,4.4,1.6,4.4,3.5V458.8z M341.8,458.8h-8.8V433
						c0-2,2-3.5,4.4-3.5s4.4,1.6,4.4,3.5V458.8z"/>
				</g>
			</g>
			<g>
				<rect x="259.8" y="461.7" class="st12" width="95.7" height="4.7"/>
			</g>
			<g>
				<polygon class="st12" points="307.6,396.7 263.6,410.7 263.6,415.1 307.6,415.1 351.6,415.1 351.6,410.7 				"/>
			</g>
			<g>
				<rect x="263.1" y="419.9" class="st12" width="89.1" height="4.4"/>
			</g>
		</g>
		<g>
			<g>
				<g>
					
						<rect x="482.5" y="430.7" transform="matrix(1 2.667622e-03 -2.667622e-03 1 1.1986 -1.3847)" class="st20" width="74.3" height="35.8"/>
				</g>
				<g>
					
						<rect x="482.5" y="430.7" transform="matrix(1 2.667622e-03 -2.667622e-03 1 1.1603 -1.3849)" class="st9" width="74.3" height="7.1"/>
				</g>
				<g>
					
						<rect x="488.2" y="442.1" transform="matrix(1 2.665135e-03 -2.665135e-03 1 1.1825 -1.3369)" class="st9" width="28" height="1.9"/>
				</g>
				<g>
					
						<rect x="488.2" y="450.8" transform="matrix(1 2.668712e-03 -2.668712e-03 1 1.2074 -1.3386)" class="st9" width="28" height="1.9"/>
				</g>
				<g>
					
						<rect x="488.2" y="459.5" transform="matrix(1 2.665135e-03 -2.665135e-03 1 1.2291 -1.3367)" class="st9" width="28" height="1.9"/>
				</g>
				<g>
					
						<rect x="525.8" y="442.2" transform="matrix(1 2.665135e-03 -2.665135e-03 1 1.1829 -1.4371)" class="st9" width="28" height="1.9"/>
				</g>
				<g>
					
						<rect x="525.8" y="450.9" transform="matrix(1 2.668703e-03 -2.668703e-03 1 1.2078 -1.439)" class="st9" width="28" height="1.9"/>
				</g>
				<g>
					
						<rect x="525.8" y="459.6" transform="matrix(1 2.668703e-03 -2.668703e-03 1 1.2311 -1.4389)" class="st9" width="28" height="1.9"/>
				</g>
				<g>
					
						<rect x="508.5" y="451.1" transform="matrix(2.669381e-03 -1 1 2.669381e-03 68.0852 971.718)" class="st9" width="25.4" height="1.3"/>
				</g>
			</g>
			<g>
				<g>
					
						<rect x="473.9" y="414.9" transform="matrix(0.9687 -0.2483 0.2483 0.9687 -91.4548 140.4743)" class="st21" width="74.3" height="35.8"/>
				</g>
				<g>
					
						<rect x="470.4" y="415.3" transform="matrix(0.9687 -0.2483 0.2483 0.9687 -88.1186 139.1558)" class="st16" width="74.3" height="7.1"/>
				</g>
				<g>
					
						<rect x="478.8" y="430.8" transform="matrix(0.9687 -0.2483 0.2483 0.9687 -91.769 135.8968)" class="st16" width="28" height="1.9"/>
				</g>
				<g>
					
						<rect x="481" y="439.2" transform="matrix(0.9687 -0.2483 0.2483 0.9687 -93.8057 136.7035)" class="st16" width="28" height="1.9"/>
				</g>
				<g>
					
						<rect x="483.1" y="447.7" transform="matrix(0.9687 -0.2483 0.2483 0.9687 -95.8403 137.5061)" class="st16" width="28" height="1.9"/>
				</g>
				<g>
					
						<rect x="515.2" y="421.4" transform="matrix(0.9687 -0.2483 0.2483 0.9687 -88.3098 144.6517)" class="st16" width="28" height="1.9"/>
				</g>
				<g>
					
						<rect x="517.4" y="429.9" transform="matrix(0.9687 -0.2483 0.2483 0.9687 -90.3444 145.4542)" class="st16" width="28" height="1.9"/>
				</g>
				<g>
					
						<rect x="519.6" y="438.4" transform="matrix(0.9687 -0.2483 0.2483 0.9687 -92.3803 146.2594)" class="st16" width="28" height="1.9"/>
				</g>
				<g>
					
						<rect x="512.7" y="422.7" transform="matrix(0.9687 -0.2483 0.2483 0.9687 -92.0381 141.1175)" class="st16" width="1.3" height="25.4"/>
				</g>
			</g>
		</g>
		<g>
			<g>
				<g>
					<path class="st16" d="M474.3,425.8h-26.7c-2.9,0-5.3-2.4-5.3-5.3v-13.6c0-2.9,2.4-5.3,5.3-5.3h26.7c2.9,0,5.3,2.4,5.3,5.3v13.6
						C479.6,423.4,477.2,425.8,474.3,425.8z M447.6,406.2c-0.3,0-0.6,0.3-0.6,0.6v13.6c0,0.3,0.3,0.6,0.6,0.6h26.7
						c0.3,0,0.6-0.3,0.6-0.6v-13.6c0-0.3-0.3-0.6-0.6-0.6H447.6z"/>
				</g>
			</g>
			<g>
				<path class="st1" d="M494.3,412.5h-66.8c-3.1,0-5.5,2.5-5.5,5.6v43.1c0,3.1,2.5,5.6,5.5,5.6h66.8c3.1,0,5.5-2.5,5.5-5.6v-43.1
					C499.9,415,497.4,412.5,494.3,412.5z"/>
			</g>
			<g>
				<g>
					<path class="st16" d="M423.2,456.1c-0.4,0-0.8,0-1.2,0.1v5c0,3.1,2.5,5.6,5.5,5.6h4c0.2-0.7,0.3-1.4,0.3-2.2
						C431.8,460,428,456.1,423.2,456.1z"/>
				</g>
				<g>
					<path class="st16" d="M431.8,414.3c0-0.6-0.1-1.2-0.2-1.7h-4.1c-3.1,0-5.5,2.5-5.5,5.6v4.6c0.4,0.1,0.8,0.1,1.2,0.1
						C428,422.8,431.8,419,431.8,414.3z"/>
				</g>
				<g>
					<rect x="435.2" y="412.5" class="st16" width="6.7" height="54.4"/>
				</g>
				<g>
					<path class="st16" d="M499.9,461.3v-4.9c-0.6-0.2-1.3-0.2-2-0.2c-4.7,0-8.6,3.8-8.6,8.6c0,0.8,0.1,1.5,0.3,2.2h4.8
						C497.4,466.9,499.9,464.4,499.9,461.3z"/>
				</g>
				<g>
					<path class="st16" d="M494.3,412.5h-4.9c-0.1,0.6-0.2,1.1-0.2,1.7c0,4.7,3.8,8.6,8.6,8.6c0.7,0,1.4-0.1,2-0.2v-4.4
						C499.9,415,497.4,412.5,494.3,412.5z"/>
				</g>
				<g>
					<rect x="480.3" y="412.5" class="st16" width="6.7" height="54.4"/>
				</g>
			</g>
		</g>
		<g>
			<g>
				<rect x="89" y="466.3" class="st3" width="568" height="3.4"/>
			</g>
			<g>
				<rect x="195.6" y="484" class="st3" width="102.5" height="1.7"/>
			</g>
			<g>
				<rect x="142" y="476.6" class="st3" width="331.7" height="1.7"/>
			</g>
			<g>
				<rect x="518.6" y="476.6" class="st3" width="110.1" height="1.7"/>
			</g>
			<rect x="300.9" y="493.6" class="st3" width="47.7" height="1.7"/>
			<rect x="405.9" y="493.6" class="st3" width="155.4" height="1.7"/>
			<g>
				<rect x="343.2" y="484" class="st3" width="153.6" height="1.7"/>
			</g>
			<g>
				<rect x="517" y="484" class="st3" width="35" height="1.7"/>
			</g>
		</g>
		<g>
			<path class="st1" d="M236.4,310.5c-0.4-5-5.9-7.2-6-7.2l-1.1-0.4l1.1-0.4c0.1,0,5.5-2.2,6-7.2h0.9c0.4,5,5.9,7.2,6,7.2l1.1,0.4
				l-1.1,0.4c-0.1,0-5.5,2.2-6,7.2H236.4z M231.7,302.9c1.4,0.7,4,2.5,5.1,5.4c1.1-3,3.7-4.7,5.1-5.4c-1.4-0.7-4-2.5-5.1-5.4
				C235.8,300.4,233.2,302.1,231.7,302.9z"/>
		</g>
		<g>
			<path class="st1" d="M384.7,364.3h-0.9c-0.2-2.9-3.5-4.2-3.5-4.2l-1.1-0.4l1.1-0.4c0,0,3.2-1.3,3.5-4.2h0.9
				c0.2,2.9,3.5,4.2,3.5,4.2l1.1,0.4l-1.1,0.4C388.1,360.1,384.9,361.4,384.7,364.3z M381.5,359.6c0.8,0.5,2.1,1.4,2.7,2.8
				c0.7-1.4,1.9-2.3,2.7-2.8c-0.8-0.5-2.1-1.4-2.7-2.8C383.5,358.2,382.3,359.2,381.5,359.6z"/>
		</g>
		<g>
			<path class="st1" d="M531.1,247.6h-0.9c-0.3-3.8-4.5-5.5-4.6-5.5l-1.1-0.4l1.1-0.4c0,0,4.2-1.7,4.6-5.5h0.9
				c0.3,3.8,4.5,5.5,4.6,5.5l1.1,0.4l-1.1,0.4C535.6,242.1,531.4,243.8,531.1,247.6z M526.9,241.7c1.1,0.6,2.9,1.9,3.8,3.9
				c0.9-2.1,2.7-3.3,3.8-3.9c-1.1-0.6-2.9-1.9-3.8-3.9C529.8,239.8,528,241.1,526.9,241.7z"/>
		</g>
		<g>
			<path class="st1" d="M390.7,354.4c-0.5-5.5-6.4-7.8-6.5-7.8l-1.1-0.4l1.1-0.4c0.1,0,6-2.4,6.5-7.8h0.9c0.5,5.4,6.4,7.8,6.5,7.8
				l1.1,0.4l-1.1,0.4c-0.1,0-6,2.4-6.5,7.8H390.7z M385.5,346.1c1.5,0.8,4.5,2.7,5.7,6c1.2-3.3,4.1-5.2,5.7-6
				c-1.5-0.8-4.5-2.7-5.7-6C390,343.4,387,345.3,385.5,346.1z"/>
		</g>
		<g>
			<path class="st1" d="M514.7,242.9h-1.3c-0.6-7.6-9-10.9-9.1-11l-1.5-0.6l1.5-0.6c0.1,0,8.4-3.4,9.1-11h1.3c0.6,7.6,9,10.9,9.1,11
				l1.5,0.6l-1.5,0.6C523.7,231.9,515.3,235.3,514.7,242.9z M506.1,231.3c2.1,1.1,6.3,3.8,8,8.5c1.6-4.7,5.8-7.4,8-8.5
				c-2.1-1.1-6.3-3.8-8-8.5C512.4,227.5,508.2,230.2,506.1,231.3z"/>
		</g>
		<g>
			<path class="st1" d="M404.9,302H404c-0.7-8.5-10-12.2-10.1-12.3l-1.1-0.4l1.1-0.4c0.1,0,9.4-3.7,10.1-12.3h0.9
				c0.7,8.5,10,12.2,10.1,12.3l1.1,0.4l-1.1,0.4C415,289.8,405.6,293.5,404.9,302z M395.2,289.3c2.2,1.1,7.6,4.3,9.3,10.1
				c1.7-5.8,7.1-9,9.3-10.1c-2.2-1.1-7.6-4.3-9.3-10.1C402.8,285.1,397.4,288.3,395.2,289.3z"/>
		</g>
		<g>
			<g>
				<rect x="191" y="263.2" class="st1" width="0.9" height="5.1"/>
			</g>
			<g>
				<rect x="187" y="264.4" transform="matrix(0.866 -0.5 0.5 0.866 -108.3732 129.5392)" class="st1" width="0.9" height="5.1"/>
			</g>
			<g>
				<rect x="184.2" y="267.5" transform="matrix(0.5 -0.866 0.866 0.5 -141.523 294.9091)" class="st1" width="0.9" height="5.1"/>
			</g>
			<g>
				<rect x="181.2" y="273.6" class="st1" width="5.1" height="0.9"/>
			</g>
			<g>
				
					<rect x="182.4" y="277.6" transform="matrix(0.8661 -0.4999 0.4999 0.8661 -114.2617 129.6771)" class="st1" width="5.1" height="0.9"/>
			</g>
			<g>
				
					<rect x="185.4" y="280.5" transform="matrix(0.4999 -0.8661 0.8661 0.4999 -149.3424 303.3011)" class="st1" width="5.1" height="0.9"/>
			</g>
			<g>
				<rect x="191.5" y="279.4" class="st1" width="0.9" height="5.1"/>
			</g>
			<g>
				<rect x="195.5" y="278.2" transform="matrix(0.866 -0.5 0.5 0.866 -114.0915 135.6126)" class="st1" width="0.9" height="5.1"/>
			</g>
			<g>
				<rect x="198.4" y="275.1" transform="matrix(0.5 -0.866 0.866 0.5 -141.022 311.0728)" class="st1" width="0.9" height="5.1"/>
			</g>
			<g>
				<rect x="197.3" y="273.1" class="st1" width="5.1" height="0.9"/>
			</g>
			<g>
				<rect x="196.1" y="269.1" transform="matrix(0.866 -0.5 0.5 0.866 -108.1828 135.4335)" class="st1" width="5.1" height="0.9"/>
			</g>
			<g>
				
					<rect x="193.1" y="266.3" transform="matrix(0.4999 -0.8661 0.8661 0.4999 -133.1927 302.8)" class="st1" width="5.1" height="0.9"/>
			</g>
		</g>
		<g>
			<g>
				<rect x="637.1" y="379" class="st1" width="0.9" height="5.1"/>
			</g>
			<g>
				
					<rect x="633.1" y="380.2" transform="matrix(0.866 -0.5001 0.5001 0.866 -106.4677 368.1412)" class="st1" width="0.9" height="5.1"/>
			</g>
			<g>
				<rect x="630.3" y="383.2" transform="matrix(0.5 -0.866 0.866 0.5 -18.7014 739.1053)" class="st1" width="0.9" height="5.1"/>
			</g>
			<g>
				<rect x="627.2" y="389.3" class="st1" width="5.1" height="0.9"/>
			</g>
			<g>
				
					<rect x="628.4" y="393.4" transform="matrix(0.8659 -0.5003 0.5003 0.8659 -112.3843 368.4777)" class="st1" width="5.1" height="0.9"/>
			</g>
			<g>
				
					<rect x="631.5" y="396.2" transform="matrix(0.5004 -0.8658 0.8658 0.5004 -26.6885 747.1208)" class="st1" width="5.1" height="0.9"/>
			</g>
			<g>
				<rect x="637.6" y="395.1" class="st1" width="0.9" height="5.1"/>
			</g>
			<g>
				<rect x="641.6" y="393.9" transform="matrix(0.866 -0.5 0.5 0.866 -112.1936 374.1559)" class="st1" width="0.9" height="5.1"/>
			</g>
			<g>
				<rect x="644.5" y="390.9" transform="matrix(0.5 -0.866 0.866 0.5 -18.2078 755.2418)" class="st1" width="0.9" height="5.1"/>
			</g>
			<g>
				<rect x="643.4" y="388.8" class="st1" width="5.1" height="0.9"/>
			</g>
			<g>
				
					<rect x="642.2" y="384.8" transform="matrix(0.8658 -0.5003 0.5003 0.8658 -106.2872 374.2475)" class="st1" width="5.1" height="0.9"/>
			</g>
			<g>
				
					<rect x="639.1" y="382" transform="matrix(0.5004 -0.8658 0.8658 0.5004 -10.5475 746.6251)" class="st1" width="5.1" height="0.9"/>
			</g>
		</g>
	</g>
</g>
<g id="DESIGNED_BY_FREEPIK">
</g>
</svg>
