<?xml version="1.0" encoding="utf-8"?>
<!-- Generator: Adobe Illustrator 21.1.0, SVG Export Plug-In . SVG Version: 6.00 Build 0)  -->
<svg version="1.1" id="Layer_1" xmlns="http://www.w3.org/2000/svg" xmlns:xlink="http://www.w3.org/1999/xlink" x="0px" y="0px"
	 viewBox="0 0 367 126" style="enable-background:new 0 0 367 126;" xml:space="preserve">
<style type="text/css">
	.st0{fill:#FFFFFF;}
</style>
<g>
	<path class="st0" d="M122.8,53.7c-2.5,12.5-5,24.9-7.6,37.3c-0.8-0.7-1.1-1.5-1.2-2.3c-2.1-10.9-4.3-21.8-6.4-32.7
		c-0.2-0.8-0.5-2.2-0.9-2.2c-2-0.2-4.2-0.4-6.1,0c-0.6,0.1-0.9,2.2-1,3.4c-1.3,14.7-2.5,29.5-3.8,44.3c-0.3,3.2-0.5,6.5-0.7,9.8
		c2.6,0,4.8,0,7.2,0c0.7-12.1,1.4-24,2.1-35.9c0.2,0,0.3,0,0.5,0c0.4,1.2,0.8,2.4,1.1,3.6c1.9,10,3.9,20.1,5.7,30.2
		c0.3,1.4,0.4,2.6,2.3,2.3c1.6-0.2,3.5,0.7,4-2.2c1.4-8.4,3.1-16.7,4.7-25.1c0.6-3.2,1.3-6.3,1.9-9.5c0.2,0,0.4,0,0.7,0
		c0.1,2,0.3,4,0.4,6c0.6,9.5,1.1,19.1,1.7,28.6c0,0.7,0.9,1.9,1.5,2c1.8,0.3,3.7,0.1,5.9,0.1c-1.7-19.4-3.3-38.5-5-57.8
		C127.3,53.7,125.1,53.7,122.8,53.7z"/>
	<path class="st0" d="M80.6,61.5c-4.8,7.1-9.4,14.4-14.4,21.4c-3.5,4.8-7.2,9.7-11.6,13.7c-7,6.3-15.9,7.3-25,6.7
		c-3.9-0.3-7.7-0.9-11.9-1.4c10.9,11.5,32.4,15.5,49.2,4.5c18.1-12,21-33.7,15.4-46.8C81.7,60.2,81.1,60.8,80.6,61.5z"/>
	<path class="st0" d="M157.5,75.1c-6.2-5.5-12.7-4.4-15.2,2.8c-3.2,9.3-3.1,18.8,0.1,28.1c1.7,4.9,5,6.7,9.6,5.7
		c2-0.4,3.7-1.7,5.6-2.6c0.1,0.6,0.3,1.4,0.4,2.2c2.4,0,4.6,0,6.8,0c0-13,0-25.8,0-38.7c-2.3,0-4.5,0-6.9,0
		C157.8,73.4,157.7,74.1,157.5,75.1z M156.8,101.6c-0.4,2.1-1.7,3.5-4.1,3.6c-2.4,0-3.9-1.4-4.1-3.5c-0.6-4.6-0.9-9.2-0.9-13.8
		c0-2.3,0.6-4.6,1.3-6.8c0.5-1.9,2.1-2.6,4-2.5c1.9,0.1,3.3,1,3.6,2.7c0.7,3.5,1.2,7,1.7,10.2C157.8,95.2,157.4,98.4,156.8,101.6z"
		/>
	<path class="st0" d="M105.5,33c1.4,0.4,2.4,0.6,3.4,0.9c0,2,0,3.9,0,5.8c2.1,0.3,2.5-1.2,3.1-2.5c0.8-1.6,1.5-3.7,2.9-4.6
		c1.8-1.1,4.2-1.1,6.5-1.6c1.8,5.4-0.8,10.4-0.5,15.8c1.1-0.7,2.2-1.5,2.6-2.6c2-4.6,3.7-9.2,5.8-13.8c0.5-1.1,1.7-2.1,2.8-2.5
		c2.5-1,5.3-1.6,7.9-2.5c1.8-0.7,3.9-1.3,4.7-4.3c-2,0-3.7-0.3-5.2,0.1c-2.5,0.5-5,1.3-7.4,2.1c-2.2,0.8-4.1,0.4-6-1
		c-3.8-2.9-7.6-5.6-11.5-8.2c-0.8-0.6-2.1-0.6-3.1-0.8c-0.1,0.3-0.2,0.5-0.2,0.8c2.7,4.2,7.5,7.1,8.9,12.3
		c-4.1,2.1-7.8,3.5-11.6-0.2c-0.7-0.7-2.2-0.6-3.3-0.9c-0.1,0.2-0.2,0.5-0.3,0.7c1.1,1.6,2.1,3.3,3.2,4.9
		C107.3,31.5,106.5,32.1,105.5,33z"/>
	<path class="st0" d="M186.8,89.1c1.3-3.5,2.8-6.8,4.2-10.2c0.8-2,1.6-4.1,2.4-6.4c-1.9,0-3.4,0.2-4.8,0c-2.2-0.3-3,0.7-3.6,2.6
		c-0.7,2.5-1.8,5-2.9,8.2c-1.2-3.5-2.1-6.2-3.2-8.9c-0.3-0.7-0.9-1.7-1.5-1.7c-2.1-0.2-4.2-0.1-6.6-0.1c0.4,1.1,0.6,1.7,0.8,2.3
		c1.8,4.4,3.6,8.7,5.5,13.1c0.9,2,0.9,3.7,0,5.7c-1.5,3-2.8,6.1-4.1,9.2c-1.2,2.8-2.4,5.6-3.6,8.5c0.8,0.1,1.2,0.1,1.5,0.1
		c5.9,0.1,5.9,0.1,8.1-5.4c0.9-2.4,1.9-4.8,3.1-7.8c1.6,4.1,2.8,7.5,4.1,10.8c0.4,0.9,1.2,2.1,2,2.3c2,0.3,4.1,0.1,6.6,0.1
		c-2.9-6.7-5.6-12.8-8.2-19C186.4,91.4,186.4,90,186.8,89.1z"/>
	<path class="st0" d="M44.5,69.1c2.8-3.8,5.4-7.8,8.5-11.3c5-5.8,10.4-11.3,15.7-17c0,0-0.4-0.5-0.9-0.8c-14.4-9.3-29.3-9.9-44-1.2
		C8.9,47.7,1.7,65.8,6,82.6c0.4,1.7,1.1,2.7,3.1,2.4c2.5-0.4,5.1-0.4,7.7-0.7C28,82.8,37.6,78.4,44.5,69.1z"/>
	<path class="st0" d="M57.3,83.2c2.7-3.9,5.4-7.8,7.8-11.9C73.2,57.8,83.1,46,96.9,37.8c1.8-1.1,3.6-2.1,5.4-3.2
		c-0.7-0.3-1.3-0.4-1.9-0.2c-12,3.8-23.6,8.7-32.5,17.7c-6,6.1-11.2,13-16.4,19.8C46,79,39.8,85.3,31.2,88
		c-6.5,2.1-13.3,3.2-19.8,4.7c6.5,1.8,13.6,3.2,21,3.2C43,96,51.2,91.7,57.3,83.2z"/>
	<path class="st0" d="M325.2,74.9c-6.4-5.3-12.8-4.1-15.2,3c-3.1,9.2-3.1,18.7,0,27.8c2.3,6.8,8.6,8.2,14.2,3.7
		c0.2-0.2,0.6-0.3,0.9-0.5c0.2,0.8,0.4,1.6,0.6,2.3c2.4,0,4.5,0,6.8,0c0-13,0-25.8,0-38.7c-2.4,0-4.6,0-6.9,0
		C325.4,73.4,325.3,74,325.2,74.9z M324.7,101.2c-0.5,2.2-1.7,4-4.4,3.9c-2.7,0-3.8-1.9-4.3-4.1c-0.6-3.1-0.8-6.3-1.2-9.8
		c0.4-2.9,0.8-6.2,1.4-9.4c0.4-2.1,1.9-3.4,4.2-3.4c2.4,0,3.7,1.4,4.2,3.5C326.1,88.5,326.1,94.9,324.7,101.2z"/>
	<path class="st0" d="M300.9,80.3c-0.1-5.8-3.5-8.8-9.2-8.1c-2.3,0.3-4.6,1.5-7,2.3c0-7.8,0-16,0-24.2c-2.6,0-5,0-7.2,0
		c0,20.4,0,40.6,0,60.9c2.5,0,4.7,0,7.2,0c0-1.2,0-2.2,0-3.2c0-8,0-16,0-24c0-3.9,1.7-5.5,5-5.3c2.8,0.1,3.9,1.6,3.9,5.5
		c0,8.1,0,16.2,0,24.3c0,0.9,0,1.8,0,2.9c2.6,0,4.8,0,7.3,0c0-1.9,0-3.6,0-5.4C300.9,97.3,301,88.8,300.9,80.3z"/>
	<path class="st0" d="M233.2,58.4c-0.4-5.2-0.3-5.3-5.7-4.8c-0.7,0.1-1.8,1-2,1.7c-1.9,9-3.6,18-5.4,27.1c-0.6,3-1.2,6.1-1.9,9.1
		c-0.2,0-0.4-0.1-0.6-0.1c-2.5-12.5-4.9-25.1-7.4-37.6c-2.5,0-4.8,0-7.2,0c-1.6,19.2-3.3,38.2-4.9,57.5c2.6,0,4.8,0,7.3,0
		c0.7-12.5,1.4-24.8,2.1-37.1c0.2,0,0.4,0,0.6,0c2.4,12.4,4.7,24.7,7.1,37.2c1.4,0,2.5-0.1,3.6,0c1.4,0.1,1.9-0.6,2.2-1.9
		c2.1-11.4,4.3-22.8,6.4-34.2c0.1-0.6,0.3-1.2,0.5-1.9c0.1,0,0.2,0.1,0.3,0.1c0.7,12.5,1.5,25.1,2.2,37.7c2.5,0,4.8,0,7.3,0
		c-0.3-3.5-0.6-6.8-0.8-10.2C235.7,86.9,234.4,72.6,233.2,58.4z"/>
	<path class="st0" d="M261.3,111.2c2.4,0,4.6,0,7,0c0-20.4,0-40.6,0-60.9c-2.5,0-4.7,0-7,0C261.3,70.7,261.3,91,261.3,111.2z"/>
	<path class="st0" d="M352.6,91.5c-1.9-2-3.9-3.9-5.7-6c-1.5-1.7-1.8-3.9-0.4-5.7c1.3-1.7,3.3-2.1,5.4-1.4c1.2,0.4,2.4,1.1,3.8,1.7
		c0-2,0.1-3.8-0.1-5.6c-0.1-0.7-0.7-1.6-1.3-1.9c-6-2.9-13.2,0.1-15.1,6.3c-1.4,4.7-0.2,8.8,3.1,12.4c2,2.1,4.1,4.1,6,6.3
		c1.4,1.7,1.9,3.7,0.6,5.7c-1.4,2.1-3.5,2.5-5.7,2c-1.5-0.3-2.8-1.2-4.4-1.9c-1.3,6.9,0.3,8.8,7.1,8.5c0.4,0,0.9-0.1,1.3-0.1
		c5-0.5,8.2-3.4,9.1-8.4C357.4,98.8,355.9,94.9,352.6,91.5z"/>
	<path class="st0" d="M248.8,56.4c-2.8-0.1-4.8,1.9-4.8,4.6c0,2.6,1.9,4.5,4.6,4.5c2.7,0,4.6-1.9,4.6-4.5
		C253.2,58.3,251.4,56.4,248.8,56.4z"/>
	<path class="st0" d="M245,85.6c0,7.8,0,15.6,0.1,23.5c0,0.8,0.7,2.1,1.2,2.2c1.9,0.3,3.8,0.1,5.8,0.1c0-13.2,0-26,0-38.8
		c-2.3,0-4.4,0-7,0C245,77.1,245,81.3,245,85.6z"/>
</g>
</svg>
