<?xml version="1.0" encoding="utf-8"?>
<!-- Generator: Adobe Illustrator 21.1.0, SVG Export Plug-In . SVG Version: 6.00 Build 0)  -->
<svg version="1.1" id="Layer_1" xmlns="http://www.w3.org/2000/svg" xmlns:xlink="http://www.w3.org/1999/xlink" x="0px" y="0px"
	 viewBox="0 0 70.9 70.9" style="enable-background:new 0 0 70.9 70.9;" xml:space="preserve">
<style type="text/css">
	.st0{fill:none;stroke:#FFFFFF;stroke-width:3;stroke-miterlimit:10;}
	.st1{fill:#FFFFFF;stroke:#FFFFFF;stroke-width:0.75;stroke-miterlimit:10;}
	.st2{fill:#FFFFFF;}
</style>
<path class="st2" d="M54.4,26.5c-0.5-2-2.1-3.5-4.1-3.7c-4.7-0.5-9.4-0.5-14.1-0.5c-4.7,0-9.4,0-14.1,0.5c-2,0.2-3.6,1.7-4.1,3.7
	c-0.7,2.8-0.7,6-0.7,8.9s0,6,0.7,8.9c0.5,2,2.1,3.5,4.1,3.7c4.7,0.5,9.4,0.5,14.1,0.5c4.7,0,9.4,0,14.1-0.5c2-0.2,3.6-1.7,4.1-3.7
	c0.7-2.8,0.7-6,0.7-8.9S55.1,29.4,54.4,26.5z M31.4,41.3c0-4.2,0-8.3,0-12.4c4,2.1,7.9,4.1,11.9,6.2C39.4,37.1,35.4,39.2,31.4,41.3z
	"/>
<circle class="st0" cx="35.4" cy="35.4" r="33.4"/>
</svg>
